<mxfile host="app.diagrams.net" agent="Mozilla/5.0 (Windows NT 10.0; Win64; x64) AppleWebKit/537.36 (KHTML, like Gecko) Chrome/130.0.0.0 Safari/537.36" version="26.2.14">
  <diagram name="P치gina-1" id="bAHLtCXkJwsxurvK6FFp">
    <mxGraphModel dx="1426" dy="743" grid="1" gridSize="10" guides="1" tooltips="1" connect="1" arrows="1" fold="1" page="1" pageScale="1" pageWidth="827" pageHeight="1169" math="0" shadow="0">
      <root>
        <mxCell id="0" />
        <mxCell id="1" parent="0" />
        <mxCell id="Xq-qjGzlQ7fD7jGvLrn3-2" value="&lt;div style=&quot;padding-top: 0px;&quot;&gt;&lt;div&gt;&lt;br&gt;&lt;/div&gt;&lt;div&gt;&lt;span style=&quot;background-color: transparent; color: light-dark(rgb(0, 0, 0), rgb(255, 255, 255));&quot;&gt;&lt;font style=&quot;font-size: 14px;&quot;&gt;&lt;b&gt;Application Layer&lt;/b&gt;&lt;/font&gt;&lt;/span&gt;&lt;/div&gt;&lt;div&gt;&lt;font style=&quot;font-size: 14px;&quot;&gt;&lt;b&gt;&lt;span style=&quot;background-color: transparent; color: light-dark(rgb(0, 0, 0), rgb(255, 255, 255));&quot;&gt;(Implementaci칩n del patr칩n&amp;nbsp;&lt;/span&gt;&lt;span style=&quot;background-color: transparent;&quot;&gt;Modelo-Vista-&lt;/span&gt;&lt;span style=&quot;background-color: transparent;&quot;&gt;Controlador - MVC&lt;/span&gt;&lt;/b&gt;&lt;/font&gt;&lt;span style=&quot;background-color: transparent; color: light-dark(rgb(0, 0, 0), rgb(255, 255, 255));&quot;&gt;&lt;font style=&quot;font-size: 14px;&quot;&gt;&lt;b&gt;)&lt;/b&gt;&lt;/font&gt;&amp;nbsp;&lt;/span&gt;&lt;/div&gt;&lt;/div&gt;" style="rounded=0;whiteSpace=wrap;html=1;verticalAlign=top;fillColor=#dae8fc;strokeColor=#6c8ebf;" vertex="1" parent="1">
          <mxGeometry x="204" y="70" width="420" height="360" as="geometry" />
        </mxCell>
        <mxCell id="Xq-qjGzlQ7fD7jGvLrn3-7" value="" style="edgeStyle=orthogonalEdgeStyle;rounded=0;orthogonalLoop=1;jettySize=auto;html=1;" edge="1" parent="1" source="Xq-qjGzlQ7fD7jGvLrn3-3" target="Xq-qjGzlQ7fD7jGvLrn3-6">
          <mxGeometry relative="1" as="geometry">
            <Array as="points">
              <mxPoint x="320" y="220" />
              <mxPoint x="320" y="220" />
            </Array>
          </mxGeometry>
        </mxCell>
        <mxCell id="Xq-qjGzlQ7fD7jGvLrn3-10" style="edgeStyle=orthogonalEdgeStyle;rounded=0;orthogonalLoop=1;jettySize=auto;html=1;exitX=1;exitY=0.75;exitDx=0;exitDy=0;" edge="1" parent="1" source="Xq-qjGzlQ7fD7jGvLrn3-3" target="Xq-qjGzlQ7fD7jGvLrn3-8">
          <mxGeometry relative="1" as="geometry" />
        </mxCell>
        <mxCell id="Xq-qjGzlQ7fD7jGvLrn3-3" value="&lt;div&gt;Vista&lt;/div&gt;&lt;div&gt;&lt;span style=&quot;background-color: transparent; color: light-dark(rgb(0, 0, 0), rgb(255, 255, 255));&quot;&gt;(Pantallas, UI)&lt;/span&gt;&lt;/div&gt;" style="rounded=0;whiteSpace=wrap;html=1;fillColor=#fff2cc;strokeColor=#d6b656;" vertex="1" parent="1">
          <mxGeometry x="280" y="145" width="120" height="60" as="geometry" />
        </mxCell>
        <mxCell id="Xq-qjGzlQ7fD7jGvLrn3-5" value="" style="edgeStyle=orthogonalEdgeStyle;rounded=0;orthogonalLoop=1;jettySize=auto;html=1;entryX=1;entryY=0.25;entryDx=0;entryDy=0;" edge="1" parent="1" source="Xq-qjGzlQ7fD7jGvLrn3-4" target="Xq-qjGzlQ7fD7jGvLrn3-3">
          <mxGeometry relative="1" as="geometry" />
        </mxCell>
        <mxCell id="Xq-qjGzlQ7fD7jGvLrn3-4" value="&lt;h1 style=&quot;margin-top: 0px;&quot;&gt;Entrada del Usuario&lt;/h1&gt;" style="text;html=1;whiteSpace=wrap;overflow=hidden;rounded=0;fontSize=6;" vertex="1" parent="1">
          <mxGeometry x="460" y="145" width="160" height="30" as="geometry" />
        </mxCell>
        <mxCell id="Xq-qjGzlQ7fD7jGvLrn3-11" style="edgeStyle=orthogonalEdgeStyle;rounded=0;orthogonalLoop=1;jettySize=auto;html=1;exitX=0.75;exitY=0;exitDx=0;exitDy=0;entryX=0.75;entryY=1;entryDx=0;entryDy=0;" edge="1" parent="1" source="Xq-qjGzlQ7fD7jGvLrn3-6" target="Xq-qjGzlQ7fD7jGvLrn3-3">
          <mxGeometry relative="1" as="geometry" />
        </mxCell>
        <mxCell id="Xq-qjGzlQ7fD7jGvLrn3-13" style="edgeStyle=orthogonalEdgeStyle;rounded=0;orthogonalLoop=1;jettySize=auto;html=1;" edge="1" parent="1" source="Xq-qjGzlQ7fD7jGvLrn3-6" target="Xq-qjGzlQ7fD7jGvLrn3-12">
          <mxGeometry relative="1" as="geometry" />
        </mxCell>
        <mxCell id="Xq-qjGzlQ7fD7jGvLrn3-6" value="&lt;div&gt;Controlador&lt;/div&gt;&lt;div&gt;&lt;span style=&quot;background-color: transparent; color: light-dark(rgb(0, 0, 0), rgb(255, 255, 255));&quot;&gt;(L칩gica de flujo)&lt;/span&gt;&lt;/div&gt;" style="rounded=0;whiteSpace=wrap;html=1;fillColor=#d5e8d4;strokeColor=#82b366;" vertex="1" parent="1">
          <mxGeometry x="280" y="250" width="120" height="60" as="geometry" />
        </mxCell>
        <mxCell id="Xq-qjGzlQ7fD7jGvLrn3-8" value="&lt;h1 style=&quot;margin-top: 0px;&quot;&gt;Respuesta&lt;/h1&gt;" style="text;html=1;whiteSpace=wrap;overflow=hidden;rounded=0;fontSize=6;" vertex="1" parent="1">
          <mxGeometry x="495" y="175" width="90" height="30" as="geometry" />
        </mxCell>
        <mxCell id="Xq-qjGzlQ7fD7jGvLrn3-12" value="&lt;div&gt;Modelo&lt;/div&gt;&lt;div&gt;&lt;span style=&quot;background-color: transparent; color: light-dark(rgb(0, 0, 0), rgb(255, 255, 255));&quot;&gt;(Acceso a datos)&lt;/span&gt;&lt;/div&gt;" style="rounded=0;whiteSpace=wrap;html=1;fillColor=#e1d5e7;strokeColor=#9673a6;" vertex="1" parent="1">
          <mxGeometry x="280" y="350" width="120" height="60" as="geometry" />
        </mxCell>
      </root>
    </mxGraphModel>
  </diagram>
</mxfile>
